<svg xmlns="http://www.w3.org/2000/svg" width="144.89" height="42.856" viewBox="0 0 144.89 42.856"><g transform="translate(-158.562 -281.225)"><text transform="translate(274.452 296.225)" fill="#fff" font-size="14" font-family="SegoeUI-Bold, Segoe UI" font-weight="700"><tspan x="0" y="0">PRO</tspan></text><g transform="translate(158.562 285.934)"><path d="M149.331,328.712a3.331,3.331,0,0,1,.593-2.475c3.73-6.93,7.522-13.826,11.22-20.773.855-1.606,1.586-1.894,2.9-.484,1.605,1.719,3.321,3.337,5.026,4.96.865.823,1.012,1.563.03,2.38q-9.751,8.1-19.5,16.2C149.559,328.558,149.543,328.564,149.331,328.712Z" transform="translate(-149.261 -291.027)" fill="#4ad295"/><path d="M205.823,324.842a2.722,2.722,0,0,1-2.038-.927q-10.188-9.886-20.349-19.8c-.447-.436-1.281-.829-1.022-1.541.275-.754,1.157-.414,1.771-.423,2.568-.035,5.137.011,7.7-.022a2.5,2.5,0,0,1,2.538,1.346q5.362,10.11,10.758,20.2C205.344,323.978,205.513,324.343,205.823,324.842Z" transform="translate(-166.42 -289.995)" fill="#4ad295"/><path d="M203.637,338.3c-.893.4-2.007-.159-2.752-.422q-10.117-3.573-20.2-7.227c-.831-.3-2.063-.343-2.281-1.319-.114-.931.974-1.422,1.632-2.015,1.769-1.6,3.563-3.166,5.33-4.764.632-.572,1.224-.923,1.985-.192,5.323,5.112,10.781,10.086,15.835,15.472A2.951,2.951,0,0,1,203.637,338.3Z" transform="translate(-164.361 -300.29)" fill="#4ad295"/><path d="M185.084,287.871c-1.463,0-2.927.033-4.389-.01-1.239-.036-1.518-.634-.918-1.724,1.517-2.755,3.027-5.514,4.5-8.3.682-1.292,1.157-1,1.732.071,1.456,2.705,2.942,5.394,4.431,8.081.759,1.37.2,1.884-1.183,1.891s-2.78,0-4.17,0Z" transform="translate(-164.921 -276.986)" fill="#4ad295"/></g><g transform="translate(203.283 285.934)"><path d="M240.028,330.072V291.925h6.018v38.147Z" transform="translate(-240.028 -291.925)" fill="#4ad295"/><path d="M260.827,330.072V291.925h13.54a20.18,20.18,0,0,1,8.086,1.5,16.663,16.663,0,0,1,5.8,4.084,17.113,17.113,0,0,1,3.519,6.044,22.743,22.743,0,0,1,1.183,7.388,22.327,22.327,0,0,1-1.317,7.871,17.2,17.2,0,0,1-3.734,6.018,16.556,16.556,0,0,1-5.856,3.868,20.6,20.6,0,0,1-7.683,1.37Zm26-19.128a17.59,17.59,0,0,0-.833-5.534,12.056,12.056,0,0,0-2.445-4.325,11.352,11.352,0,0,0-3.923-2.821,12.908,12.908,0,0,0-5.265-1.021h-7.522v27.509h7.522a12.955,12.955,0,0,0,5.346-1.047,11,11,0,0,0,3.922-2.9,12.505,12.505,0,0,0,2.391-4.379A17.957,17.957,0,0,0,286.832,310.945Z" transform="translate(-248.48 -291.925)" fill="#4ad295"/><path d="M329.957,291.925,332.3,298.2l12.36,31.873h-5.337l-3.393-8.729H323.536l-3.347,8.729h-5.382Zm4.977,25.663-5.156-13.8-5.337,13.8Z" transform="translate(-270.416 -291.925)" fill="#4ad295"/></g></g></svg>